<svg width="60" height="60" viewBox="0 0 60 60" fill="none" xmlns="http://www.w3.org/2000/svg">
<path d="M7.60178 7.38844C7.52232 7.38986 7.4442 7.40916 7.37321 7.44491C7.30223 7.48065 7.24021 7.53193 7.19176 7.59493C7.1433 7.65793 7.10966 7.73103 7.09333 7.80881C7.07699 7.88659 7.07839 7.96705 7.09741 8.04422L18.5321 54.3295C18.5543 54.4198 18.5999 54.5026 18.6643 54.5697C18.7286 54.6367 18.8095 54.6856 18.8988 54.7115C18.9881 54.7373 19.0826 54.7392 19.1729 54.7169C19.2631 54.6946 19.3459 54.649 19.4129 54.5845L53.8126 21.4955C53.8796 21.4311 53.9285 21.3501 53.9543 21.2608C53.9801 21.1715 53.9819 21.077 53.9596 20.9867C53.9373 20.8965 53.8915 20.8137 53.8271 20.7468C53.7626 20.6798 53.6816 20.631 53.5923 20.6053L7.75694 7.40906C7.70653 7.39453 7.65424 7.38758 7.60178 7.38844ZM8.34428 8.67937L52.418 21.3684L19.3402 53.1858L8.34428 8.67937Z" fill="#E8E8E8"/>
<path d="M30.533 13.9875C30.4633 13.986 30.394 13.9983 30.3291 14.0236C30.2642 14.0489 30.2049 14.0869 30.1547 14.1352L12.9628 30.6844C12.8959 30.7488 12.8472 30.8298 12.8214 30.919C12.7957 31.0083 12.794 31.1028 12.8164 31.193C12.8387 31.2831 12.8845 31.3658 12.9489 31.4327C13.0134 31.4996 13.0943 31.5484 13.1836 31.5741L36.0863 38.175C36.1755 38.2007 36.2699 38.2025 36.36 38.1802C36.4501 38.1579 36.5328 38.1123 36.5997 38.048C36.6666 37.9836 36.7155 37.9028 36.7413 37.8136C36.7671 37.7244 36.7689 37.63 36.7467 37.5398L31.0359 14.3897C31.008 14.2767 30.9436 14.176 30.8527 14.1033C30.7618 14.0306 30.6494 13.9899 30.533 13.9875ZM30.2278 15.5344L35.5003 36.9047L14.3578 30.8109L30.2278 15.5344Z" fill="#E8E8E8"/>
<path d="M21.9885 22.178C21.909 22.1794 21.8309 22.1987 21.7599 22.2344C21.6889 22.2702 21.6269 22.3215 21.5785 22.3845C21.53 22.4475 21.4964 22.5206 21.48 22.5983C21.4637 22.6761 21.4651 22.7566 21.4841 22.8338L24.3219 34.3327C24.3442 34.423 24.3898 34.5058 24.4542 34.5729C24.5187 34.64 24.5996 34.6889 24.689 34.7147C24.7783 34.7405 24.8729 34.7423 24.9632 34.7199C25.0535 34.6975 25.1362 34.6517 25.2032 34.5872L33.7448 26.3545C33.8117 26.29 33.8604 26.2091 33.8861 26.1198C33.9118 26.0305 33.9135 25.936 33.891 25.8458C33.8686 25.7556 33.8228 25.6729 33.7583 25.6061C33.6938 25.5392 33.6128 25.4905 33.5235 25.4648L22.1437 22.1986C22.0932 22.1841 22.041 22.1771 21.9885 22.178ZM22.7305 23.4675L32.3502 26.2284L25.1291 33.1875L22.7305 23.4675Z" fill="#E8E8E8"/>
<path d="M19.1716 10.6917C19.1019 10.6903 19.0326 10.7026 18.9677 10.728C18.9028 10.7535 18.8435 10.7915 18.7933 10.8398L10.2518 19.072C10.1849 19.1365 10.1361 19.2175 10.1105 19.3068C10.0848 19.3961 10.0831 19.4906 10.1055 19.5808C10.1279 19.6709 10.1737 19.7536 10.2382 19.8205C10.3027 19.8874 10.3837 19.9361 10.473 19.9617L21.851 23.2284C21.9402 23.2541 22.0346 23.2558 22.1247 23.2335C22.2148 23.2111 22.2975 23.1654 22.3644 23.101C22.4312 23.0366 22.48 22.9557 22.5057 22.8665C22.5315 22.7773 22.5333 22.6829 22.511 22.5928L19.6746 11.0944C19.6468 10.9812 19.5825 10.8803 19.4916 10.8074C19.4006 10.7345 19.2881 10.6941 19.1716 10.6917ZM18.8669 12.2386L21.2641 21.9586L11.6468 19.1977L18.8669 12.2386ZM41.9299 17.2467C41.8603 17.2453 41.7911 17.2577 41.7262 17.2831C41.6614 17.3085 41.6022 17.3465 41.5521 17.3948L33.0096 25.6266C32.9426 25.691 32.8937 25.772 32.868 25.8614C32.8422 25.9508 32.8405 26.0453 32.8629 26.1356C32.8853 26.2258 32.9312 26.3086 32.9958 26.3755C33.0603 26.4424 33.1414 26.4911 33.2308 26.5167L44.6093 29.783C44.6985 29.8086 44.7929 29.8104 44.883 29.788C44.9731 29.7656 45.0558 29.7199 45.1226 29.6555C45.1895 29.5911 45.2383 29.5103 45.264 29.4211C45.2897 29.3319 45.2916 29.2375 45.2693 29.1473L42.4333 17.6489C42.4055 17.5357 42.341 17.4349 42.25 17.3621C42.159 17.2893 42.0464 17.249 41.9299 17.2467ZM41.6252 18.7936L44.0224 28.5141L34.4051 25.7531L41.6252 18.7941V18.7936ZM24.8163 33.6862C24.6865 33.6912 24.563 33.7438 24.4694 33.8339L15.9279 42.0666C15.861 42.1311 15.8122 42.212 15.7865 42.3013C15.7609 42.3906 15.7592 42.4851 15.7816 42.5753C15.804 42.6655 15.8498 42.7482 15.9143 42.815C15.9788 42.8819 16.0598 42.9306 16.1491 42.9562L27.5294 46.2225C27.6186 46.248 27.7129 46.2497 27.8029 46.2273C27.8928 46.2049 27.9754 46.1592 28.0422 46.0949C28.1089 46.0306 28.1577 45.9498 28.1834 45.8608C28.2092 45.7717 28.2111 45.6774 28.189 45.5873L25.3507 34.0884C25.3215 33.9701 25.2524 33.8655 25.1551 33.7922C25.0577 33.719 24.9381 33.6815 24.8163 33.6862ZM24.5435 35.2331L26.9426 44.9536L17.3229 42.1927L24.5435 35.2331Z" fill="#E8E8E8"/>
</svg>
