<svg xmlns="http://www.w3.org/2000/svg" xmlns:xlink="http://www.w3.org/1999/xlink" width="1200" zoomAndPan="magnify" viewBox="0 0 900 899.99999" height="1200" preserveAspectRatio="xMidYMid meet" version="1.0"><defs><clipPath id="aeacb3ea4a"><path d="M 201 246 L 702.835938 246 L 702.835938 654 L 201 654 Z M 201 246 " clip-rule="nonzero"/></clipPath></defs><path fill="#000000" d="M 393.75 590.734375 L 393.648438 590.628906 Z M 393.75 590.734375 " fill-opacity="1" fill-rule="nonzero"/><path fill="#000000" d="M 701.269531 467.554688 C 701.292969 467.703125 701.269531 467.847656 701.292969 467.972656 C 701.3125 468.097656 701.355469 468.222656 701.355469 468.347656 Z M 701.269531 467.554688 " fill-opacity="1" fill-rule="nonzero"/><path fill="#000000" d="M 679.796875 409.683594 C 679.902344 409.851562 679.984375 410.039062 680.109375 410.226562 C 680.132812 410.25 680.152344 410.269531 680.152344 410.289062 Z M 679.796875 409.683594 " fill-opacity="1" fill-rule="nonzero"/><path fill="#1976d2" d="M 530.550781 416.996094 C 530.363281 416.996094 530.214844 416.996094 530.027344 416.996094 C 512.585938 416.996094 496.628906 423.21875 484.324219 433.492188 C 471.957031 443.933594 463.769531 458.679688 462.808594 475.386719 L 462.828125 475.386719 C 461.890625 492.554688 468.78125 508.46875 480.898438 520.3125 C 493.640625 532.464844 510.875 539.921875 529.859375 539.921875 C 530.089844 539.921875 530.320312 539.921875 530.527344 539.921875 C 530.527344 539.921875 530.550781 539.921875 530.570312 539.921875 C 530.800781 539.921875 531.03125 539.921875 531.261719 539.921875 C 550.246094 539.921875 567.480469 532.464844 580.160156 520.332031 C 592.273438 508.488281 599.167969 492.554688 598.226562 475.367188 C 597.289062 458.679688 589.121094 443.933594 576.753906 433.492188 C 564.617188 423.257812 548.304688 416.996094 530.550781 416.996094 Z M 530.550781 416.996094 " fill-opacity="1" fill-rule="nonzero"/><g clip-path="url(#aeacb3ea4a)"><path fill="#ff9800" d="M 662.898438 595.496094 C 677.542969 579.476562 688.945312 560.199219 695.839844 538.917969 L 696.152344 537.8125 C 700.394531 524.78125 702.835938 509.785156 702.835938 494.226562 C 702.835938 487.105469 702.273438 480.109375 701.3125 473.257812 C 698.136719 451.789062 690.785156 432.511719 680.109375 415.53125 C 669.582031 398.886719 656.757812 384.75 641.84375 373.199219 L 641.46875 372.925781 L 641.507812 372.925781 L 484.46875 252.382812 C 474.191406 244.488281 456.917969 244.527344 445.617188 252.421875 C 434.191406 260.402344 432.898438 273.621094 443.046875 281.976562 L 443.027344 281.996094 L 508.324219 335.105469 L 308.988281 335.3125 C 292.527344 335.335938 276.714844 346.132812 273.582031 359.792969 C 270.363281 373.679688 281.519531 385.207031 298.648438 385.269531 L 298.648438 385.3125 L 399.539062 385.101562 L 218.769531 523.820312 C 201.785156 536.808594 196.3125 558.445312 207.007812 572.125 C 217.871094 586.054688 240.953125 586.078125 258.125 572.207031 L 356.382812 491.824219 C 356.382812 491.824219 354.941406 502.683594 355.066406 509.179688 L 355.023438 509.15625 C 355.148438 515.714844 357.238281 528.414062 360.371094 538.355469 C 367.578125 560.722656 378.960938 579.957031 393.75 596.039062 C 409.710938 613.519531 429.054688 627.59375 450.777344 637.285156 L 451.863281 637.722656 C 474.046875 647.75 499.96875 653.597656 527.25 653.597656 C 527.605469 653.597656 527.960938 653.597656 528.316406 653.597656 C 528.335938 653.597656 528.355469 653.597656 528.378906 653.597656 C 528.460938 653.597656 528.566406 653.597656 528.691406 653.597656 C 555.847656 653.597656 581.621094 647.769531 604.914062 637.367188 C 627.660156 627.113281 646.960938 612.996094 662.773438 595.640625 Z M 629.121094 511.726562 C 624.152344 524.90625 616.839844 536.160156 607.585938 545.496094 L 607.542969 545.519531 C 587.28125 566.152344 558.957031 577.847656 528.273438 577.890625 C 497.566406 577.972656 469.222656 566.359375 448.960938 545.769531 C 439.644531 536.414062 432.289062 525.113281 427.527344 512.542969 L 427.320312 511.894531 C 423.976562 502.894531 422.054688 492.492188 422.054688 481.652344 C 422.054688 465.949219 426.128906 451.203125 433.230469 438.359375 C 439.558594 427.125 447.582031 417.640625 457.105469 409.914062 L 457.292969 409.769531 C 476.972656 393.730469 502.015625 385.0625 528.230469 385.019531 C 554.445312 384.976562 579.511719 393.582031 599.210938 409.558594 C 609.238281 417.726562 617.382812 427.394531 623.273438 438.109375 C 629.101562 448.382812 632.988281 460.496094 634.15625 473.382812 L 634.175781 473.71875 C 634.386719 475.992188 634.511719 478.644531 634.511719 481.320312 C 634.53125 492.011719 632.609375 502.222656 629.121094 511.726562 Z M 629.121094 511.726562 " fill-opacity="1" fill-rule="nonzero"/></g><path fill="#000000" d="M 605.894531 631.6875 C 605.582031 631.835938 605.246094 631.917969 604.914062 632.0625 C 604.851562 632.085938 604.789062 632.128906 604.726562 632.167969 Z M 605.894531 631.6875 " fill-opacity="1" fill-rule="nonzero"/></svg>