<svg width="73" height="64" viewBox="0 0 73 64" fill="none" xmlns="http://www.w3.org/2000/svg">
<path d="M34.2371 1.6721C35.9895 -0.699908 40.2157 -0.511315 41.6513 2.00295L66.5917 45.6814C67.7023 47.6264 66.4551 49.9345 63.9658 50.5407L25.709 59.8579C23.9193 60.2938 21.9969 59.7036 20.9804 58.4063L7.682 41.4341C6.79475 40.3017 6.7715 38.847 7.62224 37.6955L34.2371 1.6721Z" fill="#E8E8E8"/>
<path d="M38.6429 7.99606C38.8089 7.33953 39.8852 7.23354 40.2319 7.83958L61.947 45.7984C62.3929 46.5779 61.8915 47.5032 60.8928 47.7441L27.8436 55.7141C27.2317 55.8616 26.6508 55.4151 26.7816 54.8977L38.6429 7.99606Z" fill="#202020"/>
</svg>
