<?xml version="1.0" encoding="UTF-8" standalone="no"?><!DOCTYPE svg PUBLIC "-//W3C//DTD SVG 1.1//EN" "http://www.w3.org/Graphics/SVG/1.1/DTD/svg11.dtd"><svg width="100%" height="100%" viewBox="0 0 5834 5834" version="1.1" xmlns="http://www.w3.org/2000/svg" xmlns:xlink="http://www.w3.org/1999/xlink" xml:space="preserve" xmlns:serif="http://www.serif.com/" style="fill-rule:evenodd;clip-rule:evenodd;stroke-linejoin:round;stroke-miterlimit:2;"><path d="M2054.709,3992.318c-84.961,0 -157.639,-18.663 -217.99,-55.99c-60.352,-37.326 -106.402,-88.542 -138.173,-153.668c-30.968,-65.104 -46.463,-138.563 -46.463,-220.356c0,-82.595 15.495,-156.445 46.463,-221.571c30.968,-65.104 76.237,-116.341 135.786,-153.646c60.373,-38.129 133.811,-57.183 220.378,-57.183c98.459,0 179.08,24.219 241.819,72.656c62.717,48.438 102.04,115.951 117.925,202.496l-148.915,0c-11.111,-46.853 -34.527,-84.158 -70.269,-111.957c-35.742,-27.799 -82.986,-41.688 -141.753,-41.688c-56.38,0 -104.036,13.086 -142.947,39.301c-38.911,26.215 -68.685,62.348 -89.323,108.398c-20.66,46.05 -30.968,100.456 -30.968,163.194c0,61.936 10.308,116.341 30.968,163.194c20.638,46.05 50.412,82.183 89.323,108.398c39.714,25.412 87.37,38.108 142.947,38.108c58.767,0 106.011,-13.108 141.753,-39.301c35.742,-26.997 59.158,-63.129 70.269,-108.398l148.915,0c-15.885,84.18 -55.208,150.087 -117.925,197.721c-62.739,46.853 -143.359,70.291 -241.819,70.291Zm406.879,-14.301l0,-833.811l275.174,0c58.767,0 109.18,9.115 151.28,27.387c42.079,18.273 74.653,44.878 97.678,79.818c23.025,34.939 34.549,78.602 34.549,131.033c0,61.133 -16.298,109.18 -48.85,144.119c-31.771,34.939 -75.825,58.767 -132.227,71.484l234.679,379.97l-160.807,0l-208.464,-357.357l-107.205,0l0,357.357l-135.807,0Zm135.807,-471.701l136.979,0c38.129,0 67.904,-5.165 89.345,-15.495c22.222,-10.308 37.717,-24.609 46.463,-42.882c8.724,-19.054 13.086,-40.885 13.086,-65.495c0,-25.434 -4.362,-47.266 -13.086,-65.516c-8.746,-19.076 -24.24,-33.355 -46.463,-42.882c-21.441,-10.33 -51.215,-15.495 -89.345,-15.495l-136.979,0l0,247.765Zm874.154,486.003c-57.964,0 -112.76,-10.33 -164.366,-30.968c-50.825,-20.66 -95.703,-49.631 -134.614,-86.957c-38.108,-38.129 -67.882,-83.377 -89.345,-135.786c-21.441,-53.212 -32.14,-112.37 -32.14,-177.496c0,-65.126 10.699,-123.893 32.14,-176.302c21.463,-53.212 51.237,-98.459 89.345,-135.786c38.911,-38.129 83.789,-67.491 134.614,-88.151c50.825,-20.638 105.621,-30.968 164.366,-30.968c58.767,0 113.563,10.33 164.388,30.968c50.825,19.857 95.291,48.85 133.42,86.957c38.911,37.326 69.076,82.595 90.516,135.786c22.244,53.212 33.355,112.37 33.355,177.496c0,65.126 -11.111,124.284 -33.355,177.496c-21.441,53.19 -51.606,98.85 -90.516,136.979c-38.129,37.326 -82.595,66.298 -133.42,86.957c-50.825,19.835 -105.621,29.774 -164.388,29.774Zm0,-121.506c51.628,0 98.872,-11.914 141.753,-35.742c42.882,-23.806 77.04,-58.746 102.452,-104.818c25.412,-46.853 38.108,-103.234 38.108,-169.141c0,-67.491 -12.695,-124.284 -38.108,-170.334c-25.412,-46.072 -59.57,-80.599 -102.452,-103.646c-42.882,-23.806 -90.126,-35.72 -141.753,-35.72c-50.825,0 -97.678,11.914 -140.538,35.72c-42.904,23.828 -77.04,58.767 -102.452,104.839c-25.412,46.05 -38.108,102.431 -38.108,169.141c0,65.907 12.695,122.287 38.108,169.141c25.412,46.072 59.549,81.011 102.452,104.818c42.86,23.828 89.714,35.742 140.538,35.742Zm657.465,107.205l-291.84,-833.811l138.173,0l233.464,706.359l102.452,-306.141l-140.56,-400.217l136.979,0l94.097,293.012l92.925,-293.012l136.957,0l-140.538,400.217l101.259,306.141l234.657,-706.359l138.173,0l-291.84,833.811l-159.614,0l-111.979,-328.754l-114.345,328.754l-158.42,0Z" style="fill:#f4f7fb;fill-rule:nonzero;"/><path d="M1765.799,2934.896l0,-833.832l188.194,0l0,670.638l340.69,0l0,163.194l-528.885,0Zm509.18,0l302.561,-833.832l215.603,0l303.733,833.832l-198.915,0l-58.377,-172.721l-309.701,0l-59.549,172.721l-195.356,0Zm307.313,-322.808l206.076,0l-104.818,-303.754l-101.259,303.754Zm843.902,337.109c-86.545,0 -160.417,-18.273 -221.549,-54.796c-61.155,-37.326 -108.008,-88.151 -140.56,-152.474c-31.771,-64.323 -47.656,-138.173 -47.656,-221.571c0,-83.377 15.495,-157.617 46.463,-222.743c31.771,-65.907 78.212,-117.535 139.366,-154.861c61.155,-37.305 135.786,-55.968 223.937,-55.968c103.234,0 188.216,26.194 254.926,78.602c66.688,51.628 107.595,125.087 122.678,220.378l-206.076,0c-7.943,-40.495 -27.387,-71.875 -58.355,-94.097c-30.187,-22.244 -69.097,-33.355 -116.732,-33.355c-41.298,0 -78.234,9.918 -110.786,29.774c-32.574,19.054 -57.964,48.047 -76.237,86.957c-18.273,38.108 -27.387,86.567 -27.387,145.312c0,57.183 8.724,105.23 26.194,144.141c18.273,38.108 43.685,67.101 76.237,86.957c32.552,19.054 69.878,28.581 111.979,28.581c47.635,0 86.545,-9.918 116.732,-29.774c30.968,-20.638 50.412,-49.631 58.355,-86.957l206.076,0c-15.082,88.954 -55.99,158.832 -122.678,209.657c-66.71,50.825 -151.693,76.237 -254.926,76.237Zm1082.595,-848.134l-291.84,316.862l325.195,516.97l-217.99,0l-231.076,-384.744l-72.656,79.796l0,304.948l-188.216,0l0,-833.832l188.216,0l0,282.313l257.292,-282.313l231.076,0Z" style="fill:#f4f7fb;fill-rule:nonzero;"/><path d="M1085.547,2482.647l0,-251.234l68.49,13.748c56.424,11.306 123.047,43.49 117.925,100.825c-1.671,18.533 -10.59,35.547 -25.998,53.928c-16.276,19.423 -41.471,28.494 -66.797,28.494c-27.496,0 -53.754,11.415 -72.483,31.532l-21.137,22.708Zm0,-257.116l0,-157.519l332.27,0c91.102,0 160.482,20.486 208.138,61.458c48.481,40.104 72.721,93.207 72.721,159.223c0,48.503 -11.697,88.194 -35.113,119.119c-23.394,30.1 -52.648,52.669 -87.76,67.708c29.253,10.872 56.011,27.17 80.252,48.915c25.065,21.723 45.139,47.635 60.178,77.734c15.039,29.253 22.569,61.437 22.569,96.549c0,45.985 -11.285,87.782 -33.854,125.391c-22.569,37.609 -55.165,67.296 -97.808,89.019c-42.622,21.745 -94.878,32.595 -156.727,32.595l-146.135,0l18.509,-8.659c32.292,-15.104 60.677,-37.847 80.881,-67.231c103.147,-150.022 135.004,-266.146 134.505,-459.852c-0.109,-38.997 -5.903,-78.125 -20.378,-114.366c-11.111,-27.843 -22.895,-50.174 -36.806,-68.229c-41.45,-53.776 -118.902,-52.387 -186.089,-42.622l-5.49,0.803c-93.402,0.125 -139.926,9.055 -203.863,39.963Z" style="fill:#f4f7fb;"/><path d="M1380.621,2222.548c0,2.713 -0.521,5.295 -1.562,7.791c-1.02,2.496 -2.496,4.688 -4.405,6.597c-1.91,1.91 -4.102,3.385 -6.597,4.427c-2.496,1.02 -5.078,1.541 -7.791,1.541c-2.691,0 -5.295,-0.521 -7.791,-1.541c-2.474,-1.042 -4.688,-2.517 -6.597,-4.427c-1.91,-1.91 -3.364,-4.102 -4.405,-6.597c-1.042,-2.496 -1.541,-5.078 -1.541,-7.791c0,-2.691 0.499,-5.295 1.541,-7.791c1.042,-2.474 2.496,-4.688 4.405,-6.597c1.91,-1.91 4.123,-3.364 6.597,-4.405c2.496,-1.042 5.1,-1.541 7.791,-1.541c2.713,0 5.295,0.499 7.791,1.541c2.496,1.042 4.688,2.496 6.597,4.405c1.91,1.91 3.385,4.123 4.405,6.597c1.042,2.496 1.562,5.1 1.562,7.791Z" style="fill:#f4f7fb;fill-rule:nonzero;"/><path d="M1083.659,2452.018l47.005,-15.668l-156.727,172.418l109.722,-156.749Z" style="fill:#f4f7fb;fill-rule:nonzero;"/><path d="M1354.362,2945.92l71.072,-98.438l34.375,-129.015l-235.091,329.145l129.644,-101.693Z" style="fill:#f4f7fb;fill-rule:nonzero;"/><path d="M2998.286,2995.79l2065.321,40.69l-2065.321,40.69l-2065.321,-40.69l2065.321,-40.69Z" style="fill:#f4f7fb;fill-rule:nonzero;"/></svg>