<?xml version="1.0" encoding="UTF-8" standalone="no"?><!DOCTYPE svg PUBLIC "-//W3C//DTD SVG 1.1//EN" "http://www.w3.org/Graphics/SVG/1.1/DTD/svg11.dtd"><svg width="100%" height="100%" viewBox="0 0 5834 5834" version="1.1" xmlns="http://www.w3.org/2000/svg" xmlns:xlink="http://www.w3.org/1999/xlink" xml:space="preserve" xmlns:serif="http://www.serif.com/" style="fill-rule:evenodd;clip-rule:evenodd;stroke-linejoin:round;stroke-miterlimit:2;"><g><path d="M1746.106,2167.462l0,-538.17l146.751,29.406c120.874,24.239 263.544,93.179 252.584,215.979c-3.563,39.724 -22.692,76.14 -55.694,115.543c-34.878,41.591 -88.802,60.968 -143.089,60.968c-58.878,0 -115.123,24.494 -155.233,67.591l-45.319,48.684Zm0,-550.734l0,-337.437l711.735,0c195.154,0 343.764,43.87 445.846,131.611c103.843,85.939 155.743,199.622 155.743,341.066c0,103.843 -25.07,188.918 -75.169,255.16c-50.14,64.44 -112.811,112.811 -188.021,145.014c62.671,23.301 119.977,58.203 171.886,104.74c53.736,46.577 96.701,102.082 128.913,166.522c32.228,62.671 48.338,131.611 48.338,206.813c0,53.127 -4.023,114.374 -131.052,270.414c-66.818,82.064 -126.963,164.819 -169.015,186.252c-91.312,46.569 -185.15,72.421 -317.633,72.421l-313.001,0l39.625,-18.545c69.196,-32.36 129.974,-81.052 173.227,-143.986c220.965,-321.36 289.198,-570.094 288.137,-984.988c-0.222,-83.561 -12.663,-167.378 -43.648,-244.965c-23.811,-59.684 -49.046,-107.479 -78.871,-146.142c-88.769,-115.222 -254.641,-112.26 -398.594,-91.304l-11.733,1.703c-200.058,0.247 -299.754,19.409 -436.714,85.651Z" style="fill:#f4f7fb;"/></g><g><path d="M2330.533,1616.761c0,2.954 -0.288,5.875 -0.864,8.771c-0.576,2.896 -1.448,5.718 -2.575,8.45c-1.119,2.732 -2.501,5.307 -4.147,7.783c-1.637,2.444 -3.497,4.723 -5.587,6.813c-2.09,2.09 -4.369,3.949 -6.813,5.587c-2.477,1.646 -5.077,3.028 -7.783,4.147c-2.732,1.16 -5.554,1.999 -8.45,2.575c-2.896,0.576 -5.817,0.864 -8.771,0.864c-2.962,0 -5.883,-0.288 -8.779,-0.864c-2.921,-0.576 -5.718,-1.415 -8.45,-2.575c-2.732,-1.119 -5.34,-2.501 -7.775,-4.147c-2.444,-1.637 -4.731,-3.497 -6.821,-5.587c-2.082,-2.09 -3.949,-4.369 -5.587,-6.813c-1.637,-2.477 -3.053,-5.052 -4.18,-7.783c-1.127,-2.732 -1.958,-5.554 -2.542,-8.45c-0.576,-2.896 -0.864,-5.817 -0.864,-8.771c0,-2.962 0.288,-5.883 0.864,-8.779c0.584,-2.888 1.415,-5.718 2.542,-8.45c1.127,-2.732 2.542,-5.307 4.18,-7.775c1.637,-2.444 3.505,-4.731 5.587,-6.821c2.09,-2.082 4.377,-3.949 6.821,-5.587c2.435,-1.637 5.044,-3.02 7.775,-4.18c2.732,-1.127 5.529,-1.958 8.45,-2.542c2.896,-0.576 5.817,-0.864 8.779,-0.864c2.954,0 5.875,0.288 8.771,0.864c2.896,0.584 5.718,1.415 8.45,2.542c2.707,1.16 5.307,2.542 7.783,4.18c2.444,1.637 4.723,3.505 6.813,5.587c2.09,2.09 3.949,4.377 5.587,6.821c1.646,2.468 3.028,5.044 4.147,7.775c1.127,2.732 1.999,5.562 2.575,8.45c0.576,2.896 0.864,5.817 0.864,8.779Z" style="fill:#f4f7fb;fill-rule:nonzero;"/></g><g><path d="M1742.091,2101.78l100.724,-33.553l-335.701,369.312l234.977,-335.759Z" style="fill:#f4f7fb;fill-rule:nonzero;"/></g><g><path d="M2321.951,3159.723l152.214,-210.87l73.639,-276.338l-503.564,704.988l277.712,-217.781Z" style="fill:#f4f7fb;fill-rule:nonzero;"/></g><g><path d="M3072.371,2957.759l-1361.648,1596.283l1286.689,-1659.987l1328.808,-1611.916l-1253.848,1675.62Zm-18.15,-14.505l661.685,-884.264l-700.36,849.571l-679.313,876.409l717.988,-841.716Z" style="fill:#f4f7fb;"/><path d="M3555.672,4554.042c-181.974,0 -337.627,-39.954 -466.893,-119.912c-129.266,-79.933 -227.934,-189.658 -295.978,-329.144c-66.341,-139.461 -99.507,-296.817 -99.507,-472.011c0,-86.877 3.497,-197.763 23.021,-274.816c11.363,-44.825 232.755,-280.172 360.459,-445.451c99.005,-128.139 124.231,-152.296 146.545,-160.252c96.857,-34.548 211.758,-45.648 332.353,-45.648c210.927,0 383.587,51.876 517.963,155.62c134.376,103.777 218.579,248.347 252.584,433.76l-318.925,0c-23.811,-100.371 -73.984,-180.303 -150.544,-239.831c-76.551,-59.553 -177.761,-89.312 -303.621,-89.312c-100.947,0 -188.803,19.599 -263.585,58.812c-14.695,7.709 -28.888,16.168 -42.579,25.391c-83.372,56.122 -147.137,133.512 -191.361,232.179c-44.224,98.667 -66.332,215.173 -66.332,349.549c0,132.673 22.108,249.186 66.332,349.557c44.224,98.635 107.989,176.025 191.361,232.179c85.042,54.41 187.083,81.628 306.164,81.628c125.86,0 227.07,-28.057 303.621,-84.17c76.559,-57.849 126.732,-135.248 150.544,-232.212l318.925,0c-34.005,180.303 -118.208,321.492 -252.584,423.574c-134.376,100.338 -307.036,150.511 -517.963,150.511Z" style="fill:#f4f7fb;fill-opacity:0.97;fill-rule:nonzero;"/></g></svg>