<?xml version="1.0" encoding="UTF-8" standalone="no"?><!DOCTYPE svg PUBLIC "-//W3C//DTD SVG 1.1//EN" "http://www.w3.org/Graphics/SVG/1.1/DTD/svg11.dtd"><svg width="100%" height="100%" viewBox="0 0 5834 5834" version="1.1" xmlns="http://www.w3.org/2000/svg" xmlns:xlink="http://www.w3.org/1999/xlink" xml:space="preserve" xmlns:serif="http://www.serif.com/" style="fill-rule:evenodd;clip-rule:evenodd;"><path d="M3418.815,3961.176c-122.873,0 -227.973,-26.975 -315.256,-80.968c-87.283,-53.971 -153.906,-128.06 -199.848,-222.244c-44.792,-94.162 -67.187,-200.412 -67.187,-318.707c0,-119.444 22.396,-226.259 67.187,-320.443c44.792,-94.184 110.265,-168.251 196.398,-222.244c87.283,-55.122 193.533,-82.682 318.707,-82.682c142.426,0 259.006,35.026 349.74,105.078c90.734,70.074 147.591,167.687 170.551,292.882l-215.343,0c-16.081,-67.773 -49.957,-121.745 -101.649,-161.936c-51.693,-40.213 -120.03,-60.308 -205.013,-60.308c-81.554,0 -150.456,18.945 -206.727,56.858c-56.293,37.891 -99.349,90.148 -129.21,156.771c-29.861,66.623 -44.792,145.291 -44.792,236.024c0,89.583 14.931,168.251 44.792,236.024c29.861,66.602 72.917,118.859 129.21,156.771c57.422,36.74 126.324,55.122 206.727,55.122c84.983,0 153.32,-18.945 205.013,-56.836c51.693,-39.062 85.569,-91.319 101.649,-156.793l215.343,0c-22.96,121.745 -79.818,217.079 -170.551,286.003c-90.734,67.752 -207.313,101.628 -349.74,101.628Z" style="fill:#0d0d0d;fill-rule:nonzero;"/><path d="M2196.962,2349.712l0,-363.383l99.089,19.856c81.619,16.363 177.951,62.912 170.551,145.833c-2.409,26.823 -15.321,51.411 -37.609,78.016c-23.546,28.082 -59.961,41.168 -96.615,41.168c-39.757,0 -77.734,16.536 -104.818,45.638l-30.599,32.871Zm0,-371.866l-0,-227.846l480.577,0c131.771,0 232.118,29.622 301.042,88.867c70.117,58.03 105.165,134.787 105.165,230.295c0,70.117 -16.927,127.561 -50.76,172.287c-33.854,43.511 -76.172,76.172 -126.953,97.917c42.318,15.734 81.011,39.301 116.059,70.725c36.285,31.445 65.299,68.924 87.044,112.435c21.766,42.318 32.639,88.867 32.639,139.648c0,66.493 -16.319,126.931 -48.958,181.337c-32.639,54.405 -79.796,97.331 -141.45,128.754c-61.654,31.445 -137.218,47.157 -226.671,47.157l-211.347,0l26.755,-12.522c46.723,-21.853 87.76,-54.731 116.97,-97.222c149.197,-216.992 195.269,-384.939 194.553,-665.082c-0.152,-56.424 -8.55,-113.021 -29.47,-165.408c-16.081,-40.299 -33.116,-72.569 -53.255,-98.676c-59.939,-77.799 -171.94,-75.803 -269.141,-61.654l-7.921,1.15c-135.086,0.166 -202.401,13.106 -294.878,57.837Z" style="fill:#0d0d0d;"/><path d="M2591.58,1977.865c0,1.997 -0.195,3.971 -0.586,5.924c-0.391,1.953 -0.977,3.863 -1.736,5.707c-0.76,1.845 -1.693,3.581 -2.799,5.252c-1.107,1.649 -2.365,3.19 -3.776,4.601c-1.411,1.411 -2.951,2.669 -4.601,3.776c-1.671,1.107 -3.429,2.04 -5.252,2.799c-1.845,0.781 -3.754,1.345 -5.707,1.736c-1.953,0.391 -3.928,0.586 -5.924,0.586c-1.997,0 -3.971,-0.195 -5.924,-0.586c-1.975,-0.391 -3.863,-0.955 -5.707,-1.736c-1.845,-0.76 -3.602,-1.693 -5.252,-2.799c-1.649,-1.107 -3.19,-2.365 -4.601,-3.776c-1.411,-1.411 -2.669,-2.951 -3.776,-4.601c-1.107,-1.671 -2.062,-3.407 -2.821,-5.252c-0.76,-1.845 -1.324,-3.754 -1.714,-5.707c-0.391,-1.953 -0.586,-3.928 -0.586,-5.924c0,-1.997 0.195,-3.971 0.586,-5.924c0.391,-1.953 0.955,-3.863 1.714,-5.707c0.76,-1.845 1.714,-3.581 2.821,-5.252c1.107,-1.649 2.365,-3.19 3.776,-4.601c1.411,-1.411 2.951,-2.669 4.601,-3.776c1.649,-1.107 3.407,-2.04 5.252,-2.821c1.845,-0.76 3.733,-1.324 5.707,-1.714c1.953,-0.391 3.928,-0.586 5.924,-0.586c1.997,0 3.971,0.195 5.924,0.586c1.953,0.391 3.863,0.955 5.707,1.714c1.823,0.781 3.581,1.714 5.252,2.821c1.649,1.107 3.19,2.365 4.601,3.776c1.411,1.411 2.669,2.951 3.776,4.601c1.107,1.671 2.04,3.407 2.799,5.252c0.76,1.845 1.345,3.754 1.736,5.707c0.391,1.953 0.586,3.928 0.586,5.924Z" style="fill:#0d0d0d;fill-rule:nonzero;"/><path d="M2194.249,2305.36l68.012,-22.656l-226.671,249.371l158.659,-226.714Z" style="fill:#0d0d0d;fill-rule:nonzero;"/><path d="M2585.786,3019.705l102.778,-142.383l49.718,-186.589l-340.017,476.02l187.522,-147.049Z" style="fill:#0d0d0d;fill-rule:nonzero;"/><path d="M3088.171,2874.392l-737.109,864.127l696.527,-898.611l719.336,-872.591l-678.754,907.074Z" style="fill:#f4f7fb;fill-rule:nonzero;stroke:#0d0d0d;stroke-width:13.67px;"/></svg>